<?xml version="1.0" encoding="UTF-8"?>
<svg id="_レイヤー_1" data-name="レイヤー 1" xmlns="http://www.w3.org/2000/svg" viewBox="0 0 512 512">
  <defs>
    <style>
      .cls-1 {
        fill: #ed7456;
      }

      .cls-2 {
        fill: #fff;
      }
    </style>
  </defs>
  <rect class="cls-1" width="512" height="512"/>
  <g>
    <path class="cls-2" d="M238.22,167.48c-5.53-.21-9.46-2.76-11.8-7.65-7.87-8.08-17.49-11.64-28.86-10.68-11.38.96-22.28,2.18-32.69,3.67-4.9,1.07-9.78,1.7-14.67,1.91.21,19.35.32,38.8.32,58.36-.43,15.52-.53,31.05-.32,46.56,17.65,1.91,35.19,1.28,52.62-1.91,7.22-2.98,12.96-1.28,17.22,5.1,2.98,7.23,1.16,12.97-5.42,17.22-13.19,4.68-26.79,6.7-40.82,6.06-7.65.21-15.31-.11-22.96-.96.85,27.22,2.55,54.33,5.1,81.32.21,7.86-3.51,12.54-11.16,14.03h-1.28c-7.23-.43-11.48-4.15-12.76-11.16-4.9-51.87-6.7-103.97-5.42-156.27,0-20.41-.11-40.71-.32-60.91-4.04-2.55-5.64-6.8-4.78-12.76,2.55-7.44,7.65-10.63,15.31-9.57,8.72.21,17.33-.53,25.83-2.23,15.73-3.4,32.21-4.51,49.43-3.35,17.22,1.17,30.19,9.73,38.91,25.67,2.34,7.45.11,12.97-6.7,16.58-1.49.64-3.08.96-4.78.96Z"/>
    <path class="cls-2" d="M331.68,381.8c-14.46,0-26.68-5.1-36.68-15.31-14.46-20.2-22.86-42.52-25.19-66.97-2.34-24.45-3.03-48.79-2.07-73.03.96-24.24,2.39-48.48,4.31-72.71v-1.91c1.28-7.44,5.74-11.27,13.39-11.48,7.65,1.07,11.59,5.53,11.8,13.39v1.59c-1.91,21.9-3.24,43.75-3.99,65.54-.75,21.8-.59,43.8.48,66.02,1.06,22.22,7.54,42.79,19.45,61.71,5.31,5.74,11.91,8.4,19.77,7.97,8.08-.42,14.88-3.72,20.41-9.89,12.12-18.71,19.34-39.12,21.69-61.23,2.34-22.11,3.56-44.12,3.67-66.02.11-21.9-.59-43.9-2.07-66.02.42-7.65,4.35-12.01,11.8-13.08,7.86.21,12.33,4.15,13.39,11.8,3.61,45.72,2.98,91.43-1.91,137.14-2.34,27.43-11.59,52.2-27.75,74.31-10.21,11.27-22.96,17.33-38.27,18.18h-2.23Z"/>
  </g>
</svg>