<?xml version="1.0" encoding="UTF-8"?>
<svg id="_レイヤー_1" data-name="レイヤー 1" xmlns="http://www.w3.org/2000/svg" viewBox="0 0 512 512">
  <defs>
    <style>
      .cls-1 {
        fill: #ed7456;
      }

      .cls-2 {
        fill: #fff;
      }
    </style>
  </defs>
  <rect class="cls-1" width="512" height="512"/>
  <g>
    <path class="cls-2" d="M234.76,155.1c-6.34-.24-10.84-3.16-13.51-8.76-9.01-9.25-20.03-13.33-33.05-12.23-13.03,1.1-25.51,2.5-37.43,4.2-5.61,1.22-11.2,1.95-16.8,2.19.24,22.16.37,44.43.37,66.83-.49,17.77-.61,35.55-.37,53.32,20.21,2.19,40.29,1.46,60.26-2.19,8.27-3.41,14.85-1.46,19.72,5.84,3.41,8.28,1.33,14.85-6.21,19.72-15.1,5.36-30.68,7.67-46.75,6.94-8.76.24-17.53-.12-26.29-1.1.97,31.17,2.92,62.21,5.84,93.13.24,9-4.02,14.36-12.78,16.07h-1.46c-8.28-.49-13.15-4.75-14.61-12.78-5.61-59.4-7.67-119.06-6.21-178.95,0-23.37-.13-46.62-.37-69.75-4.63-2.92-6.45-7.79-5.48-14.61,2.92-8.52,8.76-12.17,17.53-10.96,9.98.24,19.84-.6,29.58-2.56,18.02-3.89,36.89-5.17,56.61-3.83,19.72,1.34,34.57,11.14,44.55,29.4,2.68,8.53.12,14.85-7.67,18.99-1.71.73-3.53,1.1-5.48,1.1Z"/>
    <path class="cls-2" d="M341.78,400.52c-16.56,0-30.56-5.84-42-17.53-16.56-23.13-26.17-48.69-28.85-76.69-2.68-27.99-3.47-55.88-2.37-83.63s2.74-55.51,4.93-83.27v-2.19c1.46-8.52,6.57-12.9,15.34-13.15,8.76,1.22,13.27,6.33,13.51,15.34v1.83c-2.19,25.08-3.71,50.09-4.57,75.05-.86,24.96-.68,50.16.55,75.6,1.22,25.44,8.64,49,22.28,70.67,6.08,6.57,13.63,9.62,22.64,9.13,9.25-.49,17.04-4.25,23.37-11.32,13.88-21.42,22.15-44.79,24.83-70.12,2.68-25.32,4.07-50.52,4.2-75.6.12-25.07-.68-50.27-2.37-75.6.49-8.76,4.99-13.75,13.51-14.97,9,.24,14.12,4.75,15.34,13.51,4.14,52.35,3.41,104.69-2.19,157.04-2.68,31.41-13.28,59.77-31.77,85.09-11.69,12.9-26.29,19.84-43.82,20.82h-2.56Z"/>
  </g>
</svg>