<?xml version="1.0" encoding="UTF-8"?>
<svg id="_レイヤー_1" data-name="レイヤー 1" xmlns="http://www.w3.org/2000/svg" viewBox="0 0 308.72 107.7">
  <defs>
    <style>
      .cls-1 {
        fill: #ed7456;
      }
    </style>
  </defs>
  <path class="cls-1" d="M175.22,38.39c-.49-7.57-3.82-13.46-9.99-17.67-5.47-2.73-11.04-3.05-16.72-.95,0,6.8.07,13.57.21,20.3.14,6.38.25,12.73.32,19.04,5.61,1.47,11.01.53,16.2-2.84,7.01-3.93,10.34-9.89,9.99-17.88Z"/>
  <path class="cls-1" d="M302.14,0H6.58C2.95,0,0,2.95,0,6.58v94.54c0,3.64,2.95,6.58,6.58,6.58h295.56c3.64,0,6.58-2.95,6.58-6.58V6.58c0-3.64-2.95-6.58-6.58-6.58ZM74.9,25.03c-.49.21-1.02.32-1.58.32-1.82-.07-3.12-.91-3.89-2.52-2.59-2.66-5.77-3.84-9.52-3.52-3.75.32-7.35.72-10.78,1.21-1.61.35-3.23.56-4.84.63.07,6.38.11,12.8.11,19.25-.14,5.12-.18,10.24-.11,15.36,5.82.63,11.6.42,17.35-.63,2.38-.98,4.28-.42,5.68,1.68.98,2.38.38,4.28-1.79,5.68-4.35,1.54-8.83,2.21-13.46,2-2.52.07-5.05-.03-7.57-.32.28,8.98.84,17.92,1.68,26.82.07,2.59-1.16,4.14-3.68,4.63h-.42c-2.38-.14-3.79-1.37-4.21-3.68-1.61-17.11-2.21-34.29-1.79-51.54,0-6.73-.04-13.43-.11-20.09-1.33-.84-1.86-2.24-1.58-4.21.84-2.45,2.52-3.51,5.05-3.16,2.87.07,5.71-.17,8.52-.74,5.19-1.12,10.62-1.49,16.3-1.1,5.68.39,9.96,3.21,12.83,8.47.77,2.46.03,4.28-2.21,5.47ZM126.65,65.53c-.77,9.05-3.82,17.21-9.15,24.51-3.37,3.72-7.57,5.71-12.62,6h-.74c-4.77,0-8.8-1.68-12.1-5.05-4.77-6.66-7.54-14.02-8.31-22.09-.77-8.06-1-16.09-.68-24.09s.79-15.99,1.42-23.98v-.63c.42-2.45,1.89-3.72,4.42-3.79,2.52.35,3.82,1.82,3.89,4.42v.53c-.63,7.22-1.07,14.43-1.31,21.61-.25,7.19-.19,14.45.16,21.77.35,7.33,2.49,14.11,6.42,20.35,1.75,1.89,3.93,2.77,6.52,2.63,2.66-.14,4.91-1.23,6.73-3.26,4-6.17,6.38-12.9,7.15-20.19.77-7.29,1.17-14.55,1.21-21.77.03-7.22-.19-14.48-.68-21.77.14-2.52,1.44-3.96,3.89-4.31,2.59.07,4.07,1.37,4.42,3.89,1.19,15.08.98,30.15-.63,45.23ZM183.22,95.5c-.42.14-.88.21-1.37.21-1.89-.07-3.19-.98-3.89-2.73-3.02-9.96-7.82-18.83-14.41-26.61-3.37,1.19-6.87,1.86-10.52,2-1.4,0-2.77-.11-4.1-.32,0,8.14-.14,16.27-.42,24.4-.35,2.45-1.75,3.79-4.21,4h-.21c-2.52-.35-3.86-1.82-4-4.42.56-17.25.67-34.53.32-51.85-.21-7.92-.32-15.85-.32-23.77.21-2.59,1.61-4,4.21-4.21.14,0,.32.04.53.11,8.2-3.3,16.34-2.91,24.4,1.16,8.69,5.47,13.46,13.46,14.3,23.98.63,10.8-3.51,19.14-12.41,25.03,6.73,8.14,11.64,17.35,14.72,27.66.63,2.52-.25,4.31-2.63,5.36ZM240.93,65.53c-.77,9.05-3.82,17.21-9.15,24.51-3.37,3.72-7.57,5.71-12.62,6h-.74c-4.77,0-8.8-1.68-12.1-5.05-4.77-6.66-7.54-14.02-8.31-22.09-.77-8.06-1-16.09-.68-24.09.32-7.99.79-15.99,1.42-23.98v-.63c.42-2.45,1.89-3.72,4.42-3.79,2.52.35,3.82,1.82,3.89,4.42v.53c-.63,7.22-1.07,14.43-1.31,21.61-.25,7.19-.19,14.45.16,21.77.35,7.33,2.49,14.11,6.42,20.35,1.75,1.89,3.93,2.77,6.52,2.63,2.66-.14,4.91-1.23,6.73-3.26,4-6.17,6.38-12.9,7.15-20.19.77-7.29,1.17-14.55,1.21-21.77.03-7.22-.19-14.48-.68-21.77.14-2.52,1.44-3.96,3.89-4.31,2.59.07,4.07,1.37,4.42,3.89,1.19,15.08.98,30.15-.63,45.23ZM272.46,95.08c-1.68.14-3.4.21-5.15.21-2.03-.07-4.1-.11-6.21-.11-1.89,0-3.79-.04-5.68-.11-2.59-.21-4-1.61-4.21-4.21.28-2.52,1.68-3.89,4.21-4.1,1.47,0,2.98.04,4.52.11-.07-11.01-.25-21.98-.53-32.92-.28-11.36-.46-22.68-.53-33.97h-2.1c-2.59-.21-4-1.61-4.21-4.21.21-2.59,1.61-4,4.21-4.21h13.57c2.59.21,4,1.61,4.21,4.21-.21,2.59-1.61,4-4.21,4.21h-3.16c.07,11.22.25,22.47.53,33.76.35,11.08.53,22.12.53,33.13,1.19,0,2.35-.03,3.47-.11,2.59,0,4.1,1.26,4.52,3.79,0,2.59-1.26,4.1-3.79,4.52Z"/>
</svg>